<?xml version="1.0" standalone="no"?>
<!DOCTYPE svg PUBLIC "-//W3C//DTD SVG 20010904//EN"
 "http://www.w3.org/TR/2001/REC-SVG-20010904/DTD/svg10.dtd">
<svg version="1.0" xmlns="http://www.w3.org/2000/svg"
 width="128.000000pt" height="128.000000pt" viewBox="0 0 128.000000 128.000000"
 preserveAspectRatio="xMidYMid meet">

<g transform="translate(0.000000,128.000000) scale(0.100000,-0.100000)"
fill="#000000" stroke="none">
<path d="M0 640 l0 -640 640 0 640 0 0 640 0 640 -640 0 -640 0 0 -640z m586
226 c19 -14 19 -16 -4 -81 -12 -36 -20 -71 -16 -77 4 -6 3 -8 -4 -4 -13 8 -26
-29 -16 -45 5 -8 3 -9 -6 -4 -10 6 -12 3 -8 -13 4 -12 3 -20 -2 -17 -8 5 -40
-99 -40 -132 0 -30 32 -66 52 -58 9 4 24 22 33 41 17 37 14 70 -6 58 -8 -5 -9
-3 -5 5 5 8 0 14 -13 18 -17 4 -19 9 -10 24 13 25 45 24 59 0 15 -28 12 -66
-7 -109 -9 -20 -17 -41 -17 -46 -1 -5 -20 -9 -43 -10 -23 0 -41 1 -40 4 1 3
-5 22 -12 44 -13 36 -11 88 5 151 6 23 3 25 -25 25 -27 0 -33 -5 -52 -49 -22
-51 -54 -89 -66 -77 -4 3 3 30 15 58 12 28 21 52 19 53 -41 21 -58 39 -55 58
2 14 11 23 27 25 20 3 23 0 18 -17 -5 -21 23 -55 30 -35 12 37 98 174 123 197
35 31 39 32 66 13z m284 -26 c10 -14 21 -43 24 -65 4 -30 3 -36 -5 -25 -9 12
-10 10 -6 -8 3 -13 1 -20 -5 -16 -5 3 -8 0 -6 -7 1 -8 0 -14 -3 -14 -3 0 -13
-6 -22 -14 -15 -12 -14 -15 16 -35 43 -29 61 -82 44 -133 -15 -48 -44 -62
-147 -70 l-81 -6 22 37 c20 34 21 47 18 185 -4 126 -7 152 -22 169 -24 27 -11
31 82 29 66 -2 76 -5 91 -27z m-450 -278 c0 -5 -7 -17 -15 -28 -14 -18 -14
-17 -4 9 12 27 19 34 19 19z m97 -24 c-3 -8 -6 -5 -6 6 -1 11 2 17 5 13 3 -3
4 -12 1 -19z m-142 -38 c-3 -5 -14 -10 -23 -9 -14 0 -13 2 3 9 27 11 27 11 20
0z m531 -28 c-17 -16 -18 -16 -5 5 7 12 15 20 18 17 3 -2 -3 -12 -13 -22z
m-128 -39 c-10 -2 -26 -2 -35 0 -10 3 -2 5 17 5 19 0 27 -2 18 -5z m-241 -29
c-3 -3 -12 -4 -19 -1 -8 3 -5 6 6 6 11 1 17 -2 13 -5z"/>
<path d="M549 843 c-1 -5 -1 -11 0 -15 0 -5 -4 -7 -10 -5 -6 1 -14 -4 -17 -12
-3 -9 0 -11 8 -6 9 5 11 4 6 -4 -4 -6 -11 -9 -16 -6 -5 3 -25 -25 -44 -64
l-35 -69 29 -4 c28 -4 30 -2 65 84 19 48 35 93 35 98 0 12 -19 14 -21 3z"/>
<path d="M780 765 c0 -91 11 -106 37 -54 23 45 9 126 -24 137 -10 3 -13 -18
-13 -83z"/>
<path d="M781 588 c1 -35 4 -76 8 -93 l7 -30 32 32 c24 23 32 40 32 66 0 40
-33 87 -61 87 -17 0 -19 -7 -18 -62z m21 15 c-5 -59 -10 -63 -11 -10 -1 26 3
47 7 47 4 0 6 -17 4 -37z"/>
</g>
</svg>
